<?xml version="1.0" encoding="UTF-8" standalone="no"?>
<svg width="120px" height="118px" viewBox="0 0 120 118" version="1.1" xmlns="http://www.w3.org/2000/svg" xmlns:xlink="http://www.w3.org/1999/xlink">
    <!-- Generator: Sketch 42 (36781) - http://www.bohemiancoding.com/sketch -->
    <title>1487126573_Find01</title>
    <desc>Created with Sketch.</desc>
    <defs></defs>
    <g id="Page-1" stroke="none" stroke-width="1" fill="none" fill-rule="evenodd">
        <g id="1487126573_Find01" fill-rule="nonzero" fill="#555555">
            <path d="M116.558,100.961 L89.249,73.65 C93.889,66.263 96.582,57.532 96.582,48.162 C96.582,21.653 75.092,0.166 48.584,0.166 C22.076,0.166 0.588,21.653 0.588,48.162 C0.588,74.672 22.075,96.157 48.584,96.157 C58.781,96.157 68.226,92.969 75.998,87.552 L102.982,114.538 C104.857,116.411 107.315,117.344 109.77,117.344 C112.228,117.344 114.683,116.411 116.561,114.538 C120.308,110.787 120.308,104.711 116.558,100.961 Z M48.584,80.607 C30.667,80.607 16.141,66.082 16.141,48.164 C16.141,30.246 30.667,15.72 48.584,15.72 C66.502,15.72 81.027,30.246 81.027,48.164 C81.027,66.082 66.502,80.607 48.584,80.607 Z" id="Shape"></path>
        </g>
    </g>
</svg>